<svg height="480pt" viewBox="-96 0 480 480.01503" width="480pt" xmlns="http://www.w3.org/2000/svg"><path d="m144.007812 0c-59.773437-.0234375-113.339843 36.894531-134.59375 92.761719-21.253906 55.867187-5.769531 119.054687 38.90625 158.765625l7.6875 76.878906v63.59375c0 2.960938.167969 5.839844.429688 8.71875v.082031c4.515625 44.984375 42.386719 79.234375 87.597656 79.214844 45.214844-.019531 83.054688-34.296875 87.53125-79.289063.265625-2.878906.433594-5.757812.433594-8.71875v-63.601562l7.6875-76.878906c44.671875-39.710938 60.15625-102.894532 38.90625-158.761719-21.25-55.863281-74.816406-92.7851562-134.585938-92.765625zm72 360h-144v-24h144zm0 32h-144v-16h144zm-72 72c-33.636718.121094-62.824218-23.175781-70.167968-56h140.328125c-7.347657 32.820312-36.53125 56.113281-70.160157 56zm82.398438-222.121094c-2.082031 1.804688-3.054688 4.578125-2.550781 7.289063l-7.046875 70.832031h-145.5625l-7.015625-70.121094c.714843-2.945312-.296875-6.042968-2.617188-8-41.152343-34.621094-56.277343-91.277344-37.851562-141.804687 18.425781-50.523438 66.472656-84.144531 120.253906-84.144531s101.828125 33.621093 120.253906 84.144531c18.425781 50.527343 3.300781 107.183593-37.855469 141.804687zm0 0"/></svg>