<?xml version="1.0" encoding="iso-8859-1"?>
<!-- Generator: Adobe Illustrator 19.0.0, SVG Export Plug-In . SVG Version: 6.00 Build 0)  -->
<svg version="1.1" id="Layer_1" xmlns="http://www.w3.org/2000/svg" xmlns:xlink="http://www.w3.org/1999/xlink" x="0px" y="0px"
	 viewBox="0 0 512.002 512.002" style="enable-background:new 0 0 512.002 512.002;" xml:space="preserve">
<g>
	<g>
		<path d="M469.499,74.345h-4.381v-5.75c0-13.386-10.897-24.276-24.291-24.276h-2.093c-3.27-9.551-12.335-16.439-22.986-16.439
			H49.37c-10.651,0-19.716,6.889-22.986,16.439h-2.093C10.897,44.319,0,55.209,0,68.595v54.796
			c0,13.385,10.897,24.276,24.292,24.276h2.093c3.27,9.551,12.335,16.439,22.986,16.439h280.817c4.329,0,7.837-3.509,7.837-7.837
			s-3.508-7.837-7.837-7.837H82.325v-13.64c0-4.328-3.508-7.837-7.837-7.837c-4.329,0-7.837,3.509-7.837,7.837v13.641H49.37
			c-4.752,0-8.618-3.859-8.618-8.603V52.156c0-4.744,3.866-8.603,8.618-8.603h17.282v55.713c0,4.328,3.508,7.837,7.837,7.837
			c4.329,0,7.837-3.509,7.837-7.837V43.553h300.468v104.881H362.58c-4.329,0-7.837,3.509-7.837,7.837s3.508,7.837,7.837,7.837
			h53.169c10.651,0,19.716-6.889,22.986-16.439h2.093c13.393,0,24.291-10.89,24.291-24.276v-7.942h4.381
			c0.745,0,1.374,0.626,1.374,1.368v74.524c0,0.741-0.63,1.367-1.374,1.367h-215c-23.435,0-42.501,19.052-42.501,42.47v37.59
			c-4.174,2.251-7.02,6.663-7.02,11.728v15.932c-3.931,2.318-6.582,6.584-6.582,11.467v13.739
			c-3.931,2.318-6.582,6.584-6.582,11.467v133.705c0,7.344,5.976,13.317,13.321,13.317h54.847c7.346,0,13.321-5.974,13.321-13.317
			v-96.731c0-4.328-3.508-7.837-7.837-7.837c-4.329,0-7.837,3.509-7.837,7.837v8.882h-9.471c-4.329,0-7.837,3.509-7.837,7.837
			c0,4.328,3.508,7.837,7.837,7.837h9.471v11.79h-9.471c-4.329,0-7.837,3.509-7.837,7.837s3.508,7.837,7.837,7.837h9.471v11.791
			h-9.471c-4.329,0-7.837,3.509-7.837,7.837c0,4.328,3.508,7.837,7.837,7.837h9.471v14.892h-50.143V339.458h50.143v6.404
			c0,4.328,3.508,7.837,7.837,7.837c4.329,0,7.837-3.509,7.837-7.837V337.1c0-4.883-2.651-9.149-6.582-11.467v-13.739
			c0-4.883-2.651-9.149-6.582-11.467v-15.933c0-5.065-2.844-9.476-7.019-11.727v-37.59c0-0.741,0.63-1.368,1.375-1.368H411.69
			c4.329,0,7.837-3.509,7.837-7.837c0-4.328-3.508-7.837-7.837-7.837H254.498c-9.401,0-17.049,7.644-17.049,17.041v36.001h-9.778
			v-36.001c0-14.776,12.035-26.796,26.828-26.796h215.001c9.4,0,17.047-7.644,17.047-17.04v-74.524
			c0-9.397-7.648-17.041-17.047-17.041h-4.381v-9.757h4.381c14.793,0,26.828,12.021,26.828,26.797v74.524
			c0,14.776-12.035,26.796-26.828,26.796h-26.463c-4.329,0-7.837,3.509-7.837,7.837c0,4.328,3.508,7.837,7.837,7.837h26.463
			c23.435,0,42.501-19.052,42.501-42.47v-74.524C512,93.398,492.934,74.345,469.499,74.345z M25.079,131.993h-0.787
			c-4.752,0-8.618-3.859-8.618-8.603V68.595c0-4.744,3.866-8.603,8.618-8.603h0.787V131.993z M424.366,139.831
			c0,4.744-3.866,8.603-8.618,8.603h-17.282V43.553h17.282c4.752,0,8.618,3.859,8.618,8.603V139.831z M449.444,123.39
			c0,4.743-3.865,8.603-8.617,8.603h-0.787V59.992h0.787c4.752,0,8.617,3.859,8.617,8.603V123.39z M251.049,323.784h-36.98v-9.534
			h36.98V323.784z M244.467,286.852v11.725h-23.816v-11.725H244.467z"/>
	</g>
</g>
<g>
</g>
<g>
</g>
<g>
</g>
<g>
</g>
<g>
</g>
<g>
</g>
<g>
</g>
<g>
</g>
<g>
</g>
<g>
</g>
<g>
</g>
<g>
</g>
<g>
</g>
<g>
</g>
<g>
</g>
</svg>
