<svg height="512pt" viewBox="0 0 512 512" width="512pt" xmlns="http://www.w3.org/2000/svg"><path d="m452.515625 300.75c-29.132813-25.199219-80.683594-54.613281-165.042969-60.648438l-4.269531-38.125c-1.160156-10.40625-8.566406-19.039062-18.667969-21.769531v-18.074219c0-14.136718 11.460938-25.597656 25.597656-25.597656h17.066407c23.554687-.03125 42.640625-19.117187 42.667969-42.667968v-8.535157c-.027344-23.550781-19.113282-42.636719-42.667969-42.664062h-17.066407c-14.136718 0-25.597656-11.460938-25.597656-25.601563v-8.53125c0-4.714844-3.824218-8.535156-8.535156-8.535156s-8.535156 3.820312-8.535156 8.535156v8.53125c.03125 23.550782 19.117187 42.640625 42.667968 42.667969h17.066407c14.140625 0 25.601562 11.460937 25.601562 25.597656v8.535157c0 14.136718-11.460937 25.597656-25.601562 25.597656h-17.066407c-23.550781.03125-42.636718 19.117187-42.667968 42.667968v18.074219c-10.113282 2.722657-17.53125 11.359375-18.695313 21.769531l-4.265625 38.125c-84.359375 5.972657-135.910156 35.449219-165.042968 60.648438-37.230469 32.210938-59.460938 76.089844-59.460938 117.382812 0 69.308594 17.867188 93.867188 68.265625 93.867188 43.214844 0 66.425781-14.832031 88.867187-29.167969 28.632813-20.914062 63.425782-31.671875 98.867188-30.566406 35.441406-1.105469 70.234375 9.652344 98.867188 30.566406 22.441406 14.335938 45.652343 29.167969 88.867187 29.167969 50.398437 0 68.265625-24.558594 68.265625-93.867188 0-41.292968-22.1875-85.171874-59.484375-117.382812zm-210.714844-61.5625 3.933594-35.324219c.476563-4.320312 4.128906-7.59375 8.472656-7.597656h3.585938c4.34375.003906 7.996093 3.277344 8.472656 7.597656l3.933594 35.324219c-4.984375-.167969-9.632813-.253906-14.199219-.253906s-9.214844.085937-14.199219.253906zm201.933594 255.746094c-38.230469 0-57.429687-12.269532-79.675781-26.453125-31.371094-22.691407-69.355469-34.390625-108.058594-33.28125-38.703125-1.109375-76.6875 10.589843-108.058594 33.28125-22.246094 14.183593-41.445312 26.453125-79.675781 26.453125-36.101563 0-51.199219-10.667969-51.199219-76.800782 0-118.117187 146.558594-162.132812 238.933594-162.132812 4.515625 0 8.910156.109375 13.277344.238281 2.867187.101563 5.855468.230469 9.027344.394531 157.28125 8.132813 216.628906 101.578126 216.628906 161.5 0 66.132813-15.097656 76.800782-51.199219 76.800782zm0 0"/><path d="m136.535156 307.199219c-37.703125 0-68.269531 30.566406-68.269531 68.265625 0 37.703125 30.566406 68.269531 68.269531 68.269531 37.699219 0 68.265625-30.566406 68.265625-68.269531-.042969-37.683594-30.582031-68.222656-68.265625-68.265625zm0 119.46875c-28.277344 0-51.203125-22.925781-51.203125-51.203125 0-28.273438 22.925781-51.199219 51.203125-51.199219 28.273438 0 51.199219 22.925781 51.199219 51.199219-.027344 28.265625-22.9375 51.171875-51.199219 51.203125zm0 0"/><path d="m375.464844 307.199219c-37.699219 0-68.265625 30.566406-68.265625 68.265625 0 37.703125 30.566406 68.269531 68.265625 68.269531 37.703125 0 68.269531-30.566406 68.269531-68.269531-.042969-37.683594-30.582031-68.222656-68.269531-68.265625zm0 119.46875c-28.273438 0-51.199219-22.925781-51.199219-51.203125 0-28.273438 22.925781-51.199219 51.199219-51.199219 28.277344 0 51.203125 22.925781 51.203125 51.199219-.03125 28.265625-22.9375 51.171875-51.203125 51.203125zm0 0"/><path d="m162.132812 366.933594h-17.066406v-17.066406c0-4.714844-3.820312-8.535157-8.53125-8.535157-4.714844 0-8.535156 3.820313-8.535156 8.535157v17.066406h-17.066406c-4.714844 0-8.535156 3.820312-8.535156 8.53125 0 4.714844 3.820312 8.535156 8.535156 8.535156h17.066406v17.066406c0 4.714844 3.820312 8.535156 8.535156 8.535156 4.710938 0 8.53125-3.820312 8.53125-8.535156v-17.066406h17.066406c4.714844 0 8.535157-3.820312 8.535157-8.535156 0-4.710938-3.820313-8.53125-8.535157-8.53125zm0 0"/><path d="m273.066406 392.535156h-34.132812c-4.714844 0-8.535156 3.820313-8.535156 8.53125 0 4.714844 3.820312 8.535156 8.535156 8.535156h34.132812c4.714844 0 8.535156-3.820312 8.535156-8.535156 0-4.710937-3.820312-8.53125-8.535156-8.53125zm0 0"/><path d="m273.066406 358.398438h-34.132812c-4.714844 0-8.535156 3.820312-8.535156 8.535156 0 4.710937 3.820312 8.53125 8.535156 8.53125h34.132812c4.714844 0 8.535156-3.820313 8.535156-8.53125 0-4.714844-3.820312-8.535156-8.535156-8.535156zm0 0"/><path d="m343.832031 369.433594c-3.332031 3.332031-3.332031 8.734375 0 12.070312 3.332031 3.332032 8.738281 3.332032 12.070313 0 3.332031-3.335937 3.332031-8.738281-.003906-12.070312-3.332032-3.332032-8.734376-3.332032-12.066407 0zm0 0"/><path d="m369.433594 343.832031c-3.332032 3.332031-3.332032 8.738281 0 12.070313 3.332031 3.332031 8.734375 3.332031 12.066406 0 3.332031-3.332032 3.332031-8.738282 0-12.070313-3.332031-3.328125-8.734375-3.328125-12.066406 0zm0 0"/><path d="m369.433594 395.035156c-3.332032 3.332032-3.332032 8.734375 0 12.066406 3.332031 3.332032 8.734375 3.332032 12.066406 0 3.332031-3.332031 3.332031-8.734374 0-12.066406-3.332031-3.332031-8.734375-3.332031-12.066406 0zm0 0"/><path d="m395.035156 369.433594c-3.335937 3.332031-3.335937 8.734375-.003906 12.070312 3.332031 3.332032 8.738281 3.332032 12.070312 0 3.332032-3.335937 3.332032-8.738281 0-12.070312-3.335937-3.332032-8.734374-3.332032-12.066406 0zm0 0"/></svg>