<svg height="481pt" viewBox="-78 0 481 481.7" width="481pt" xmlns="http://www.w3.org/2000/svg"><path d="m314.351562 20.898438c-5.519531.015624-9.984374 4.484374-10 10v35.5c.027344 19.609374-15.84375 35.523437-35.453124 35.550781-19.605469.027343-35.519532-15.84375-35.546876-35.449219v-6.5c0-33.136719-26.863281-60-60-60-33.136718 0-60 26.863281-60 60v44.699219h-2.800781c-60.601562 0-110.199219 49.101562-110.199219 109.800781v157c0 60.601562 49.597657 110.199219 110.199219 110.199219h25c60.699219 0 109.800781-49.597657 109.800781-110.199219v-157c.019532-29.125-11.542968-57.066406-32.140624-77.664062-20.59375-20.59375-48.535157-32.15625-77.660157-32.136719h-2.199219v-44.800781c0-22.089844 17.90625-40 40-40 22.089844 0 40 17.910156 40 40v6.5c-.027343 30.652343 24.796876 55.523437 55.449219 55.550781 30.652344.027343 55.523438-24.796875 55.550781-55.449219v-35.601562c-.015624-5.515626-4.484374-9.984376-10-10zm-203.800781 103.800781h2.800781v110h-93v-20.199219c0-49.699219 40.597657-89.800781 90.199219-89.800781zm25 337h-25c-49.601562 0-90.199219-40.597657-90.199219-90.199219v-116.800781h205v116.800781c0 49.601562-40.101562 90.199219-89.800781 90.199219zm0-337c23.820313-.019531 46.671875 9.4375 63.519531 26.28125 16.84375 16.84375 26.296876 39.699219 26.28125 63.519531v20.199219h-92v-110zm0 0"/></svg>